<svg width="124" height="20" viewBox="0 0 124 20" fill="none" xmlns="http://www.w3.org/2000/svg">
    <path d="M21.4195 4.88411V5.91745C20.8248 5.14866 19.7236 4.61955 18.4483 4.61955C15.4342 4.61955 13.1911 7.28322 13.1911 10.4059C13.1911 13.619 15.4116 16.1922 18.4483 16.1922C19.7236 16.1922 20.8248 15.6857 21.4195 14.8717V15.9073H25.1821V4.88411H21.4195ZM26.48 0V15.9073H30.3737V10.0283C30.3737 8.88411 30.9232 8.20125 31.8028 8.20125C32.6824 8.20125 33.1459 8.79594 33.1459 9.89486V15.9028H37.0396V8.98361C37.0396 6.2996 35.588 4.62634 33.2567 4.62634C32.7009 4.60596 32.1481 4.71695 31.6432 4.95033C31.1384 5.1837 30.6957 5.53289 30.3511 5.96948V0.00679012L26.48 0ZM62.1001 10.4014C62.1001 13.7027 59.5699 16.1877 56.203 16.1877C52.8361 16.1877 50.3059 13.7004 50.3059 10.4014C50.3059 7.10232 52.8361 4.61505 56.203 4.61505C59.5699 4.61505 62.1001 7.10232 62.1001 10.4014ZM49.6456 10.4014C49.6456 13.7027 47.1176 16.1877 43.7508 16.1877C40.3839 16.1877 37.8537 13.7004 37.8537 10.4014C37.8537 7.10232 40.3839 4.61505 43.7508 4.61505C47.1176 4.61505 49.6456 7.10232 49.6456 10.4014ZM0.605469 4.87959L5.31322 15.9932L3.61734 20H7.75527L14.0187 4.88411H9.91243L7.35957 11.3533L4.82932 4.88411L0.605469 4.87959ZM19.2397 12.6671C18.9397 12.6737 18.6414 12.62 18.3625 12.5091C18.0836 12.3982 17.8299 12.2323 17.6164 12.0214C17.403 11.8104 17.2341 11.5587 17.1198 11.2812C17.0056 11.0037 16.9483 10.706 16.9514 10.4059C16.9486 10.1059 17.0061 9.80834 17.1205 9.53096C17.2348 9.25358 17.4037 9.00199 17.6171 8.79111C17.8306 8.58023 18.0841 8.41433 18.3629 8.3033C18.6416 8.19226 18.9398 8.13835 19.2397 8.14472C19.5376 8.14139 19.8331 8.19761 20.109 8.31006C20.3848 8.42251 20.6354 8.58892 20.8461 8.79956C21.0567 9.01019 21.2231 9.2608 21.3356 9.53664C21.448 9.81248 21.5042 10.108 21.5009 10.4059C21.5045 10.7038 21.4485 10.9995 21.3362 11.2755C21.2239 11.5515 21.0574 11.8022 20.8467 12.0129C20.636 12.2236 20.3853 12.39 20.1093 12.5024C19.8334 12.6147 19.5377 12.6707 19.2397 12.6671ZM45.9509 10.4059C45.9579 10.114 45.906 9.82365 45.7982 9.55229C45.6904 9.28093 45.529 9.03412 45.3236 8.82661C45.1181 8.61909 44.873 8.45515 44.6027 8.34459C44.3325 8.23403 44.0427 8.17911 43.7508 8.18315C43.4588 8.17911 43.169 8.23403 42.8988 8.34459C42.6286 8.45515 42.3834 8.61909 42.178 8.82661C41.9726 9.03412 41.8112 9.28093 41.7034 9.55229C41.5956 9.82365 41.5436 10.114 41.5507 10.4059C41.5436 10.6978 41.5956 10.9881 41.7034 11.2595C41.8112 11.5308 41.9726 11.7776 42.178 11.9851C42.3834 12.1927 42.6286 12.3566 42.8988 12.4672C43.169 12.5777 43.4588 12.6326 43.7508 12.6286C44.0427 12.6326 44.3325 12.5777 44.6027 12.4672C44.873 12.3566 45.1181 12.1927 45.3236 11.9851C45.529 11.7776 45.6904 11.5308 45.7982 11.2595C45.906 10.9881 45.9579 10.6978 45.9509 10.4059ZM58.4031 10.4059C58.4101 10.114 58.3582 9.82365 58.2504 9.55229C58.1426 9.28093 57.9812 9.03412 57.7758 8.82661C57.5704 8.61909 57.3252 8.45515 57.055 8.34459C56.7847 8.23403 56.495 8.17911 56.203 8.18315C55.9111 8.17911 55.6213 8.23403 55.351 8.34459C55.0808 8.45515 54.8356 8.61909 54.6302 8.82661C54.4248 9.03412 54.2634 9.28093 54.1556 9.55229C54.0478 9.82365 53.9959 10.114 54.0029 10.4059C53.9959 10.6978 54.0478 10.9881 54.1556 11.2595C54.2634 11.5308 54.4248 11.7776 54.6302 11.9851C54.8356 12.1927 55.0808 12.3566 55.351 12.4672C55.6213 12.5777 55.9111 12.6326 56.203 12.6286C56.495 12.6326 56.7847 12.5777 57.055 12.4672C57.3252 12.3566 57.5704 12.1927 57.7758 11.9851C57.9812 11.7776 58.1426 11.5308 58.2504 11.2595C58.3582 10.9881 58.4101 10.6978 58.4031 10.4059ZM62.584 13.5715C62.5801 13.9056 62.643 14.237 62.7692 14.5464C62.8953 14.8557 63.0821 15.1367 63.3186 15.3727C63.555 15.6087 63.8363 15.795 64.1459 15.9206C64.4554 16.0462 64.787 16.1086 65.1211 16.104C65.4657 16.1067 65.8074 16.0408 66.1263 15.9102C66.4452 15.7796 66.7349 15.5868 66.9786 15.3431C67.2223 15.0995 67.4151 14.8097 67.5457 14.4908C67.6763 14.1719 67.7422 13.8302 67.7395 13.4856C67.7453 13.1517 67.6838 12.8201 67.5587 12.5105C67.4336 12.2009 67.2475 11.9196 67.0114 11.6835C66.7752 11.4474 66.494 11.2612 66.1844 11.1361C65.8748 11.011 65.5431 10.9495 65.2092 10.9553C64.8651 10.9544 64.5242 11.0216 64.2062 11.1528C63.8881 11.2841 63.5991 11.477 63.3557 11.7203C63.1124 11.9636 62.9196 12.2526 62.7883 12.5707C62.657 12.8888 62.5899 13.2297 62.5908 13.5738L62.584 13.5715ZM68.1284 0.00452675L63.9905 9.98755H68.61L72.7457 0L68.1284 0.00452675Z"
          fill="var(--yb-logo-brand, #6001D2)"/>
    <path d="M79.6761 15.9638H83.7145V8.96553C83.7145 6.27248 82.2357 4.61729 79.8706 4.61729C78.5681 4.61729 77.5076 5.16901 76.8677 6.2001V4.91804H72.8315V15.957H76.879V10.078C76.879 8.94742 77.4308 8.26908 78.3126 8.26908C79.1945 8.26908 79.6829 8.88864 79.6829 9.94687L79.6761 15.9638ZM110.557 15.9638L114.31 4.92483H110.315L108.572 10.6659L106.717 4.92483H103.737L101.86 10.6659L100.137 4.92483H96.0537L99.8073 15.9638H103.251L105.171 10.069L107.113 15.9638H110.557ZM123.758 12.4319C123.758 10.6433 122.543 9.67101 120.094 8.98814L119.452 8.81176C118.548 8.56755 118.195 8.47937 118.195 8.21481C118.195 7.90503 118.437 7.76258 119.034 7.76258C120.165 7.76258 121.241 8.13792 122.367 8.68965L123.604 5.79764C122.192 5.06175 120.626 4.66825 119.034 4.64895C116.187 4.64895 114.243 6.08481 114.243 8.4025C114.243 10.3675 115.502 11.3171 117.996 11.8892L118.57 12.0226C119.409 12.2216 119.785 12.3324 119.785 12.6399C119.785 13.0153 119.409 13.1261 118.835 13.1261C117.538 13.0815 116.272 12.7181 115.149 12.0678L113.736 14.926C115.061 15.7852 116.915 16.2827 118.792 16.2827C121.704 16.2827 123.767 14.892 123.767 12.4387L123.758 12.4319ZM92.567 12.2329C92.3645 12.5277 92.0898 12.7656 91.7691 12.9239C91.4485 13.0823 91.0926 13.1558 90.7355 13.1374C89.675 13.1374 88.8135 12.459 88.7479 11.4596H96.3635C96.3943 11.181 96.4094 10.9009 96.4087 10.6207C96.4087 7.00283 94.0684 4.61729 90.6676 4.61729C89.8952 4.60191 89.1277 4.74271 88.411 5.03124C87.6943 5.31976 87.0433 5.7501 86.497 6.29638C85.9508 6.84266 85.5205 7.49365 85.2319 8.21031C84.9434 8.92697 84.8026 9.69454 84.818 10.4669C84.818 13.9763 87.1153 16.2713 90.7128 16.2713C93.1413 16.2713 94.9503 15.3443 96.0108 13.5579L92.567 12.2329ZM88.7705 9.16452C88.8587 8.26005 89.632 7.6631 90.6473 7.6631C91.6625 7.6631 92.4132 8.25779 92.5014 9.16452H88.7705Z"
          fill="var(--yb-logo-property, #232A31)"/>
</svg>