<svg xmlns="http://www.w3.org/2000/svg" class="logo" viewBox="0 5 850 250" height="44" width="101">
    <path d="M78.8814 60.8966C91.2183 24.533 125.363 0 163.744 0C202.126 0 236.146 24.533 248.358 60.8966L327.239 293.275H226.177L212.967 251.93H114.272L101.063 293.275H0L78.8814 60.8966ZM163.62 97.6339L137.7 178.829H189.54L163.62 97.6339Z M580.582 40.0996C566.376 27.2727 549.677 17.4346 530.487 10.4608C511.296 3.48692 490.361 0 467.93 0C445.499 0 424.564 3.48692 405.373 10.4608C386.058 17.4346 369.484 27.2727 355.402 40.0996C341.321 52.9265 330.355 68.4931 322.255 86.7995C314.279 105.106 310.167 125.654 310.167 148.443C310.167 171.233 314.155 191.905 322.255 210.585C330.23 229.265 341.321 245.33 355.402 258.531C369.484 271.731 386.058 281.943 405.373 289.166C424.564 296.389 445.499 300 467.93 300C490.361 300 511.296 296.389 530.487 289.166C549.677 281.943 566.501 271.731 580.582 258.531C594.788 245.33 605.879 229.265 613.854 210.585C621.83 191.905 625.942 171.108 625.942 148.443C625.942 125.778 621.954 105.23 613.854 86.7995C605.879 68.4931 594.788 52.9265 580.582 40.0996ZM519.894 174.097C517.028 181.818 513.165 188.543 508.056 194.147C502.947 199.751 497.09 204.11 490.236 207.223C483.382 210.336 476.03 211.831 467.93 211.831C459.83 211.831 452.353 210.336 445.499 207.223C438.521 204.11 432.664 199.751 427.679 194.147C422.695 188.543 418.832 181.818 416.09 174.097C413.224 166.376 411.853 157.783 411.853 148.443C411.853 139.103 413.224 131.009 416.09 123.412C418.956 115.816 422.819 109.34 427.679 104.11C432.664 98.8792 438.521 94.7696 445.499 91.9054C452.478 88.9166 459.955 87.5467 467.93 87.5467C475.905 87.5467 483.382 89.0411 490.236 91.9054C497.09 94.8942 502.947 98.8792 508.056 104.11C513.165 109.34 517.028 115.691 519.894 123.412C522.761 131.009 524.131 139.103 524.131 148.443C524.131 157.783 522.761 166.376 519.894 174.097Z M743.454 210.959V9.21544H647.127V218.929C647.127 260.025 680.399 293.4 721.646 293.4H850V211.083H743.579L743.454 210.959Z"/>
</svg>